<svg width="14" height="8" viewBox="0 0 14 8" fill="none" xmlns="http://www.w3.org/2000/svg">
<path fill-rule="evenodd" clip-rule="evenodd" d="M12.8968 6.85506C12.9435 6.80861 12.9806 6.75344 13.0059 6.69269C13.0312 6.63195 13.0442 6.56683 13.0442 6.50106C13.0442 6.43529 13.0312 6.37017 13.0059 6.30943C12.9806 6.24868 12.9435 6.19351 12.8968 6.14706L6.87714 0.147059C6.83054 0.100496 6.77519 0.0635536 6.71424 0.0383472C6.6533 0.0131407 6.58796 0.000165863 6.52198 0.000165862C6.456 0.000165861 6.39066 0.0131407 6.32972 0.0383472C6.26878 0.0635536 6.21342 0.100496 6.16682 0.147059L0.147148 6.14706C0.0529537 6.24095 3.62472e-05 6.36828 3.62456e-05 6.50106C3.6244e-05 6.63384 0.0529537 6.76117 0.147148 6.85506C0.241343 6.94895 0.369098 7.00169 0.502309 7.00169C0.63552 7.00169 0.763275 6.94895 0.85747 6.85506L6.52198 1.20806L12.1865 6.85506C12.2331 6.90162 12.2884 6.93857 12.3494 6.96377C12.4103 6.98898 12.4757 7.00195 12.5417 7.00195C12.6076 7.00195 12.673 6.98898 12.7339 6.96377C12.7949 6.93857 12.8502 6.90162 12.8968 6.85506Z" fill="white"/>
</svg>
