<svg width="14" height="8" viewBox="0 0 14 8" fill="none" xmlns="http://www.w3.org/2000/svg">
<path fill-rule="evenodd" clip-rule="evenodd" d="M12.8968 0.146894C12.9435 0.193339 12.9806 0.248515 13.0059 0.30926C13.0312 0.370005 13.0442 0.435126 13.0442 0.500894C13.0442 0.566661 13.0312 0.631782 13.0059 0.692527C12.9806 0.753272 12.9435 0.808448 12.8968 0.854894L6.87714 6.85489C6.83054 6.90146 6.77519 6.9384 6.71424 6.96361C6.6533 6.98881 6.58796 7.00179 6.52198 7.00179C6.456 7.00179 6.39066 6.98881 6.32972 6.96361C6.26878 6.9384 6.21342 6.90146 6.16682 6.85489L0.147148 0.854894C0.0529537 0.761007 3.62472e-05 0.63367 3.62456e-05 0.500894C3.6244e-05 0.368118 0.0529537 0.24078 0.147148 0.146894C0.241343 0.053007 0.369098 0.000261934 0.502309 0.000261933C0.63552 0.000261931 0.763275 0.053007 0.85747 0.146894L6.52198 5.79389L12.1865 0.146894C12.2331 0.10033 12.2884 0.0633873 12.3494 0.0381808C12.4103 0.0129744 12.4757 6.75737e-09 12.5417 5.9731e-09C12.6076 5.18883e-09 12.673 0.0129744 12.7339 0.0381808C12.7949 0.0633873 12.8502 0.10033 12.8968 0.146894Z" fill="white"/>
</svg>
