<svg id="Ebene_1" data-name="Ebene 1" xmlns="http://www.w3.org/2000/svg" viewBox="0 0 101.5 71.5"><defs><style>.cls-1{fill:none;}.cls-2{fill:#fff;stroke:#fff;stroke-miterlimit:10;stroke-width:1.5px;}</style></defs><path class="cls-1" d="M7248.61,7164.5h-98.22a.92.92,0,0,0-.89.94v68.12a.92.92,0,0,0,.89.94h98.22a.92.92,0,0,0,.89-.94v-68.12A.92.92,0,0,0,7248.61,7164.5Z" transform="translate(-7148.75 -7163.75)"/><path class="cls-1" d="M7195.31,7202.65h8.38a3.3,3.3,0,0,0,3.21-3.38v-12.22h-14.8v12.22A3.3,3.3,0,0,0,7195.31,7202.65Zm4.19-13.52a3.52,3.52,0,0,1,3.42,3.61,3.57,3.57,0,0,1-2.53,3.47v3.42a.89.89,0,1,1-1.78,0v-3.42a3.58,3.58,0,0,1-2.53-3.47A3.53,3.53,0,0,1,7199.5,7189.13Zm40.3-22.75v19.73a.92.92,0,0,1-.89.94h-30.23v8.35h30.23a.92.92,0,0,1,.89.94v27a.92.92,0,0,1-.89.94h-78.82a.92.92,0,0,1-.89-.94v-27a.92.92,0,0,1,.89-.94h30.23v-8.35h-30.23a.92.92,0,0,1-.89-.94v-19.73h-7.92v66.24h96.44v-66.24Z" transform="translate(-7148.75 -7163.75)"/><path class="cls-1" d="M7201.13,7192.74a1.63,1.63,0,1,0-1.63,1.72A1.69,1.69,0,0,0,7201.13,7192.74Zm7.55,6.53a5.14,5.14,0,0,1-5,5.26h-8.38a5.14,5.14,0,0,1-5-5.26v-2H7161v25.11h77v-25.11h-29.34Zm-47.7-32.89v18.79h77v-18.79Z" transform="translate(-7148.75 -7163.75)"/><path class="cls-2" d="M7198.61,7196.21v3.42a.89.89,0,1,0,1.78,0v-3.42a3.57,3.57,0,0,0,2.53-3.47,3.43,3.43,0,1,0-6.84,0A3.58,3.58,0,0,0,7198.61,7196.21Zm.89-5.2a1.73,1.73,0,1,1-1.63,1.73A1.69,1.69,0,0,1,7199.5,7191Zm49.11-26.51h-98.22a.92.92,0,0,0-.89.94v68.12a.92.92,0,0,0,.89.94h98.22a.92.92,0,0,0,.89-.94v-68.12A.92.92,0,0,0,7248.61,7164.5Zm-87.63,1.88h77v18.79h-77Zm34.33,38.15h8.38a5.14,5.14,0,0,0,5-5.26v-2H7238v25.11h-77v-25.11h29.34v2A5.14,5.14,0,0,0,7195.31,7204.53Zm-3.21-5.26v-12.22h14.8v12.22a3.3,3.3,0,0,1-3.21,3.38h-8.38A3.3,3.3,0,0,1,7192.1,7199.27Zm55.62,33.35h-96.44v-66.24h7.92v19.73a.92.92,0,0,0,.89.94h30.23v8.35h-30.23a.92.92,0,0,0-.89.94v27a.92.92,0,0,0,.89.94h78.82a.92.92,0,0,0,.89-.94v-27a.92.92,0,0,0-.89-.94h-30.23v-8.35h30.23a.92.92,0,0,0,.89-.94v-19.73h7.92Z" transform="translate(-7148.75 -7163.75)"/></svg>