<svg id="Ebene_1" data-name="Ebene 1" xmlns="http://www.w3.org/2000/svg" viewBox="0 0 101.5 71.5"><defs><style>.cls-1{fill:none;}.cls-1,.cls-2{stroke:#fff;stroke-miterlimit:10;stroke-width:1.5px;}.cls-2{fill:#fff;}</style></defs><path class="cls-1" d="M7243.79,7172.57c-3.15,0-5.71,2.92-5.71,6.5a7.12,7.12,0,0,0,1.05,3.76l-17.33,19-18.18-26.36a7,7,0,0,0,1.59-4.5c0-3.58-2.56-6.5-5.71-6.5s-5.71,2.92-5.71,6.5a7,7,0,0,0,1.59,4.5l-18.18,26.36-17.33-19a7.12,7.12,0,0,0,1.05-3.76c0-3.58-2.56-6.5-5.71-6.5s-5.71,2.92-5.71,6.5,2.56,6.51,5.71,6.51h.18c1.45,9.65,4.17,27.91,5.71,38.54v9.48a.86.86,0,0,0,.8.91h75.2a.86.86,0,0,0,.8-.91v-9.48c1.54-10.63,4.26-28.89,5.71-38.54h.18c3.15,0,5.71-2.92,5.71-6.51S7246.94,7172.57,7243.79,7172.57Z" transform="translate(-7148.75 -7163.75)"/><path class="cls-1" d="M7240.23,7184.15l-18,19.71a.72.72,0,0,1-.61.25.79.79,0,0,1-.57-.34l-18.73-27.15a5.09,5.09,0,0,1-5.72,0l-18.73,27.15a.79.79,0,0,1-.57.34.72.72,0,0,1-.61-.25l-18-19.71a5.3,5.3,0,0,1-1.81,1.11c1.42,9.46,4.06,27.15,5.61,37.87h73.86c1.55-10.72,4.19-28.41,5.61-37.87A5.3,5.3,0,0,1,7240.23,7184.15Z" transform="translate(-7148.75 -7163.75)"/><path class="cls-1" d="M7199.5,7175.69a4.73,4.73,0,1,0-4.12-4.69A4.44,4.44,0,0,0,7199.5,7175.69Zm-44.29-1.31a4.73,4.73,0,1,0,4.12,4.69A4.44,4.44,0,0,0,7155.21,7174.38Zm7.48,58.31h73.62V7225h-73.62Zm81.1-58.31a4.73,4.73,0,1,0,4.12,4.69A4.44,4.44,0,0,0,7243.79,7174.38Z" transform="translate(-7148.75 -7163.75)"/><path class="cls-2" d="M7243.79,7172.57c-3.15,0-5.71,2.92-5.71,6.5a7.12,7.12,0,0,0,1.05,3.76l-17.33,19-18.18-26.36a7,7,0,0,0,1.59-4.5c0-3.58-2.56-6.5-5.71-6.5s-5.71,2.92-5.71,6.5a7,7,0,0,0,1.59,4.5l-18.18,26.36-17.33-19a7.12,7.12,0,0,0,1.05-3.76c0-3.58-2.56-6.5-5.71-6.5s-5.71,2.92-5.71,6.5,2.56,6.51,5.71,6.51h.18c1.45,9.65,4.17,27.91,5.71,38.54v9.48a.86.86,0,0,0,.8.91h75.2a.86.86,0,0,0,.8-.91v-9.48c1.54-10.63,4.26-28.89,5.71-38.54h.18c3.15,0,5.71-2.92,5.71-6.51S7246.94,7172.57,7243.79,7172.57Zm-48.41-1.57a4.15,4.15,0,1,1,4.12,4.69A4.44,4.44,0,0,1,7195.38,7171Zm-40.17,12.76a4.73,4.73,0,1,1,4.12-4.69A4.44,4.44,0,0,1,7155.21,7183.76Zm81.1,48.93h-73.62V7225h73.62Zm.12-9.56h-73.86c-1.55-10.72-4.19-28.41-5.61-37.87a5.3,5.3,0,0,0,1.81-1.11l18,19.71a.72.72,0,0,0,.61.25.79.79,0,0,0,.57-.34l18.73-27.15a5.09,5.09,0,0,0,5.72,0l18.73,27.15a.79.79,0,0,0,.57.34.72.72,0,0,0,.61-.25l18-19.71a5.3,5.3,0,0,0,1.81,1.11C7240.62,7194.72,7238,7212.41,7236.43,7223.13Zm7.36-39.37a4.73,4.73,0,1,1,4.12-4.69A4.44,4.44,0,0,1,7243.79,7183.76Z" transform="translate(-7148.75 -7163.75)"/></svg>