<svg id="Ebene_1" data-name="Ebene 1" xmlns="http://www.w3.org/2000/svg" viewBox="0 0 101.5 71.5"><defs><style>.cls-1{fill:none;}.cls-1,.cls-2{stroke:#fff;stroke-miterlimit:10;stroke-width:1.5px;}.cls-2{fill:#fff;}</style></defs><path class="cls-1" d="M7248.87,7167.89a278.06,278.06,0,0,1-73.94-3.39,94.7,94.7,0,0,0-24.8,3.39.84.84,0,0,0-.63.8v65a.83.83,0,0,0,.34.66.87.87,0,0,0,.52.17.91.91,0,0,0,.23,0,93,93,0,0,1,24.31-3.32,91.59,91.59,0,0,1,20.25,2.31h0a36.52,36.52,0,0,0,8.7,0h0a91.52,91.52,0,0,1,20.25-2.31,93,93,0,0,1,24.31,3.32.91.91,0,0,0,.23,0,.87.87,0,0,0,.52-.17.83.83,0,0,0,.34-.66v-65A.84.84,0,0,0,7248.87,7167.89Z" transform="translate(-7148.75 -7163.75)"/><path class="cls-1" d="M7151.22,7229v3.61a94.11,94.11,0,0,1,23.68-3.09,92.19,92.19,0,0,1,20.15,2.25l.5-.52,2.35-2.43a90,90,0,0,0-46.68.18Zm72.85-3.17a92.19,92.19,0,0,0-23,3l2.85,2.95a92.12,92.12,0,0,1,20.15-2.25,94.11,94.11,0,0,1,23.68,3.09V7229A92.94,92.94,0,0,0,7224.07,7225.8Z" transform="translate(-7148.75 -7163.75)"/><path class="cls-1" d="M7197.15,7232c1.35.07,3.35.07,4.7,0l-2.35-2.43Zm26.92-65.84a92.92,92.92,0,0,0-23.71,3.16v57.92a92.22,92.22,0,0,1,47.42,0v-57.92A92.92,92.92,0,0,0,7224.07,7166.16Zm19.85,54a.87.87,0,0,1-.84.66l-.19,0a89.44,89.44,0,0,0-37.64,0,.87.87,0,0,1-1-.64.83.83,0,0,1,.66-1,91.28,91.28,0,0,1,38.38,0A.83.83,0,0,1,7243.92,7220.19Zm0-5.54a.87.87,0,0,1-.84.66l-.19,0a89.44,89.44,0,0,0-37.64,0,.88.88,0,0,1-1-.64.84.84,0,0,1,.66-1,91.28,91.28,0,0,1,38.38,0A.84.84,0,0,1,7243.92,7214.65Zm0-5.54a.86.86,0,0,1-.84.65.62.62,0,0,1-.19,0,89.77,89.77,0,0,0-37.64,0,.86.86,0,0,1-1-.63.84.84,0,0,1,.66-1,91.28,91.28,0,0,1,38.38,0A.84.84,0,0,1,7243.92,7209.11Zm0-5.55a.87.87,0,0,1-.84.66l-.19,0a89.44,89.44,0,0,0-37.64,0,.87.87,0,0,1-1-.64.84.84,0,0,1,.66-1,91.61,91.61,0,0,1,38.38,0A.84.84,0,0,1,7243.92,7203.56Zm0-5.54a.86.86,0,0,1-.84.65h-.19a89.44,89.44,0,0,0-37.64,0,.88.88,0,0,1-1-.64.84.84,0,0,1,.66-1,91.28,91.28,0,0,1,38.38,0A.84.84,0,0,1,7243.92,7198Zm0-5.54a.86.86,0,0,1-.84.65.62.62,0,0,1-.19,0,89.77,89.77,0,0,0-37.64,0,.86.86,0,0,1-1-.63.84.84,0,0,1,.66-1,91.28,91.28,0,0,1,38.38,0A.84.84,0,0,1,7243.92,7192.48Zm0-5.55a.87.87,0,0,1-.84.66l-.19,0a89.44,89.44,0,0,0-37.64,0,.87.87,0,0,1-1-.64.84.84,0,0,1,.66-1,91.61,91.61,0,0,1,38.38,0A.84.84,0,0,1,7243.92,7186.93Zm0-5.54a.86.86,0,0,1-.84.65h-.19a89.44,89.44,0,0,0-37.64,0,.88.88,0,0,1-1-.64.84.84,0,0,1,.66-1,91.28,91.28,0,0,1,38.38,0A.84.84,0,0,1,7243.92,7181.39Zm0-5.54a.86.86,0,0,1-.84.65l-.19,0a89.44,89.44,0,0,0-37.64,0,.87.87,0,0,1-1-.63.83.83,0,0,1,.66-1,91.28,91.28,0,0,1,38.38,0A.83.83,0,0,1,7243.92,7175.85Zm-45.28-6.53a90.53,90.53,0,0,0-47.42,0v57.92a92.22,92.22,0,0,1,47.42,0Zm-3.86,50.87a.87.87,0,0,1-.84.66l-.19,0a89.44,89.44,0,0,0-37.64,0,.87.87,0,0,1-1-.64.83.83,0,0,1,.66-1,91.28,91.28,0,0,1,38.38,0A.83.83,0,0,1,7194.78,7220.19Zm0-5.54a.87.87,0,0,1-.84.66l-.19,0a89.44,89.44,0,0,0-37.64,0,.88.88,0,0,1-1-.64.84.84,0,0,1,.66-1,91.28,91.28,0,0,1,38.38,0A.84.84,0,0,1,7194.78,7214.65Zm0-5.54a.86.86,0,0,1-.84.65.62.62,0,0,1-.19,0,89.77,89.77,0,0,0-37.64,0,.86.86,0,0,1-1-.63.84.84,0,0,1,.66-1,91.28,91.28,0,0,1,38.38,0A.84.84,0,0,1,7194.78,7209.11Zm0-5.55a.87.87,0,0,1-.84.66l-.19,0a89.44,89.44,0,0,0-37.64,0,.87.87,0,0,1-1-.64.84.84,0,0,1,.66-1,91.61,91.61,0,0,1,38.38,0A.84.84,0,0,1,7194.78,7203.56Zm0-5.54a.86.86,0,0,1-.84.65h-.19a89.44,89.44,0,0,0-37.64,0,.88.88,0,0,1-1-.64.84.84,0,0,1,.66-1,91.28,91.28,0,0,1,38.38,0A.84.84,0,0,1,7194.78,7198Zm0-5.54a.86.86,0,0,1-.84.65.62.62,0,0,1-.19,0,89.77,89.77,0,0,0-37.64,0,.86.86,0,0,1-1-.63.84.84,0,0,1,.66-1,91.28,91.28,0,0,1,38.38,0A.84.84,0,0,1,7194.78,7192.48Zm0-5.55a.87.87,0,0,1-.84.66l-.19,0a89.44,89.44,0,0,0-37.64,0,.87.87,0,0,1-1-.64.84.84,0,0,1,.66-1,91.61,91.61,0,0,1,38.38,0A.84.84,0,0,1,7194.78,7186.93Zm0-5.54a.86.86,0,0,1-.84.65h-.19a89.44,89.44,0,0,0-37.64,0,.88.88,0,0,1-1-.64.84.84,0,0,1,.66-1,91.28,91.28,0,0,1,38.38,0A.84.84,0,0,1,7194.78,7181.39Zm0-5.54a.86.86,0,0,1-.84.65l-.19,0a89.44,89.44,0,0,0-37.64,0,.87.87,0,0,1-1-.63.83.83,0,0,1,.66-1,91.28,91.28,0,0,1,38.38,0A.83.83,0,0,1,7194.78,7175.85Z" transform="translate(-7148.75 -7163.75)"/><path class="cls-2" d="M7156.11,7215.29a89.44,89.44,0,0,1,37.64,0l.19,0a.87.87,0,0,0,.84-.66.84.84,0,0,0-.66-1,91.28,91.28,0,0,0-38.38,0,.84.84,0,0,0-.66,1A.88.88,0,0,0,7156.11,7215.29Zm37.64,5.54.19,0a.87.87,0,0,0,.84-.66.83.83,0,0,0-.66-1,91.28,91.28,0,0,0-38.38,0,.83.83,0,0,0-.66,1,.87.87,0,0,0,1,.64A89.44,89.44,0,0,1,7193.75,7220.83Zm-37.64-11.09a89.77,89.77,0,0,1,37.64,0,.62.62,0,0,0,.19,0,.86.86,0,0,0,.84-.65.84.84,0,0,0-.66-1,91.28,91.28,0,0,0-38.38,0,.84.84,0,0,0-.66,1A.86.86,0,0,0,7156.11,7209.74Zm0-16.63a89.77,89.77,0,0,1,37.64,0,.62.62,0,0,0,.19,0,.86.86,0,0,0,.84-.65.84.84,0,0,0-.66-1,91.28,91.28,0,0,0-38.38,0,.84.84,0,0,0-.66,1A.86.86,0,0,0,7156.11,7193.11Zm0-11.08a89.44,89.44,0,0,1,37.64,0h.19a.86.86,0,0,0,.84-.65.84.84,0,0,0-.66-1,91.28,91.28,0,0,0-38.38,0,.84.84,0,0,0-.66,1A.88.88,0,0,0,7156.11,7182Zm0-5.55a89.44,89.44,0,0,1,37.64,0l.19,0a.86.86,0,0,0,.84-.65.83.83,0,0,0-.66-1,91.28,91.28,0,0,0-38.38,0,.83.83,0,0,0-.66,1A.87.87,0,0,0,7156.11,7176.48Zm0,11.09a89.44,89.44,0,0,1,37.64,0l.19,0a.87.87,0,0,0,.84-.66.84.84,0,0,0-.66-1,91.61,91.61,0,0,0-38.38,0,.84.84,0,0,0-.66,1A.87.87,0,0,0,7156.11,7187.57Zm0,11.09a89.44,89.44,0,0,1,37.64,0h.19a.86.86,0,0,0,.84-.65.84.84,0,0,0-.66-1,91.28,91.28,0,0,0-38.38,0,.84.84,0,0,0-.66,1A.88.88,0,0,0,7156.11,7198.66Zm0,5.54a89.44,89.44,0,0,1,37.64,0l.19,0a.87.87,0,0,0,.84-.66.84.84,0,0,0-.66-1,91.61,91.61,0,0,0-38.38,0,.84.84,0,0,0-.66,1A.87.87,0,0,0,7156.11,7204.2Zm87.15-23.8a91.28,91.28,0,0,0-38.38,0,.84.84,0,0,0-.66,1,.88.88,0,0,0,1,.64,89.44,89.44,0,0,1,37.64,0h.19a.86.86,0,0,0,.84-.65A.84.84,0,0,0,7243.26,7180.4Zm0,38.81a91.28,91.28,0,0,0-38.38,0,.83.83,0,0,0-.66,1,.87.87,0,0,0,1,.64,89.44,89.44,0,0,1,37.64,0l.19,0a.87.87,0,0,0,.84-.66A.83.83,0,0,0,7243.26,7219.21Zm0-27.72a91.28,91.28,0,0,0-38.38,0,.84.84,0,0,0-.66,1,.86.86,0,0,0,1,.63,89.77,89.77,0,0,1,37.64,0,.62.62,0,0,0,.19,0,.86.86,0,0,0,.84-.65A.84.84,0,0,0,7243.26,7191.49Zm-39-15.64a.87.87,0,0,0,1,.63,89.44,89.44,0,0,1,37.64,0l.19,0a.86.86,0,0,0,.84-.65.83.83,0,0,0-.66-1,91.28,91.28,0,0,0-38.38,0A.83.83,0,0,0,7204.22,7175.85Zm44.65-8a278.06,278.06,0,0,1-73.94-3.39,94.7,94.7,0,0,0-24.8,3.39.84.84,0,0,0-.63.8v65a.83.83,0,0,0,.34.66.87.87,0,0,0,.52.17.91.91,0,0,0,.23,0,93,93,0,0,1,24.31-3.32,91.59,91.59,0,0,1,20.25,2.31h0a36.52,36.52,0,0,0,8.7,0h0a91.52,91.52,0,0,1,20.25-2.31,93,93,0,0,1,24.31,3.32.91.91,0,0,0,.23,0,.87.87,0,0,0,.52-.17.83.83,0,0,0,.34-.66v-65A.84.84,0,0,0,7248.87,7167.89Zm-97.65,1.43a90.53,90.53,0,0,1,47.42,0v57.92a92.22,92.22,0,0,0-47.42,0Zm43.83,62.42a92.19,92.19,0,0,0-20.15-2.25,94.11,94.11,0,0,0-23.68,3.09V7229a90,90,0,0,1,46.68-.18l-2.35,2.43Zm2.1.26,2.35-2.43,2.35,2.43C7200.5,7232.07,7198.5,7232.07,7197.15,7232Zm50.63.58a94.11,94.11,0,0,0-23.68-3.09,92.12,92.12,0,0,0-20.15,2.25l-2.85-2.95a90,90,0,0,1,46.68.18Zm0-5.34a92.22,92.22,0,0,0-47.42,0v-57.92a90.53,90.53,0,0,1,47.42,0Zm-4.52-41.3a91.61,91.61,0,0,0-38.38,0,.84.84,0,0,0-.66,1,.87.87,0,0,0,1,.64,89.44,89.44,0,0,1,37.64,0l.19,0a.87.87,0,0,0,.84-.66A.84.84,0,0,0,7243.26,7185.94Zm0,27.72a91.28,91.28,0,0,0-38.38,0,.84.84,0,0,0-.66,1,.88.88,0,0,0,1,.64,89.44,89.44,0,0,1,37.64,0l.19,0a.87.87,0,0,0,.84-.66A.84.84,0,0,0,7243.26,7213.66Zm0-5.54a91.28,91.28,0,0,0-38.38,0,.84.84,0,0,0-.66,1,.86.86,0,0,0,1,.63,89.77,89.77,0,0,1,37.64,0,.62.62,0,0,0,.19,0,.86.86,0,0,0,.84-.65A.84.84,0,0,0,7243.26,7208.12Zm0-5.55a91.61,91.61,0,0,0-38.38,0,.84.84,0,0,0-.66,1,.87.87,0,0,0,1,.64,89.44,89.44,0,0,1,37.64,0l.19,0a.87.87,0,0,0,.84-.66A.84.84,0,0,0,7243.26,7202.57Zm0-5.54a91.28,91.28,0,0,0-38.38,0,.84.84,0,0,0-.66,1,.88.88,0,0,0,1,.64,89.44,89.44,0,0,1,37.64,0h.19a.86.86,0,0,0,.84-.65A.84.84,0,0,0,7243.26,7197Z" transform="translate(-7148.75 -7163.75)"/></svg>