<svg id="Ebene_1" data-name="Ebene 1" xmlns="http://www.w3.org/2000/svg" viewBox="0 0 104 104.47"><defs><style>.cls-1{fill:#fff;}.cls-2{fill:none;stroke:#fff;stroke-miterlimit:10;stroke-width:4px;}</style></defs><path class="cls-1" d="M7173.33,7208.21l-4.49-17.71h2.42l2.1,9c.52,2.21,1,4.42,1.31,6.12h.06c.28-1.76.84-3.86,1.44-6.15l2.37-8.93h2.39l2.15,9c.5,2.1,1,4.2,1.24,6.07h.05c.37-2,.87-3.92,1.42-6.13l2.34-8.93h2.34l-5,17.71h-2.39l-2.24-9.22a52.38,52.38,0,0,1-1.15-5.78h-.06a55.8,55.8,0,0,1-1.36,5.78l-2.53,9.22Z" transform="translate(-7147.5 -7147.26)"/><path class="cls-1" d="M7196.87,7193.29h-.05l-3,1.6-.45-1.76,3.74-2h2v17.08h-2.24Z" transform="translate(-7147.5 -7147.26)"/><path class="cls-1" d="M7216.68,7199.49c0,5.8-2.15,9-5.94,9-3.33,0-5.59-3.13-5.64-8.78s2.46-8.88,5.93-8.88S7216.68,7194.05,7216.68,7199.49Zm-9.27.26c0,4.44,1.36,7,3.47,7,2.36,0,3.49-2.76,3.49-7.12,0-4.2-1.08-7-3.47-7C7208.88,7192.63,7207.41,7195.1,7207.41,7199.75Z" transform="translate(-7147.5 -7147.26)"/><path class="cls-1" d="M7230.16,7199.49c0,5.8-2.15,9-5.94,9-3.34,0-5.6-3.13-5.65-8.78s2.47-8.88,5.94-8.88S7230.16,7194.05,7230.16,7199.49Zm-9.28.26c0,4.44,1.37,7,3.47,7,2.37,0,3.5-2.76,3.5-7.12,0-4.2-1.08-7-3.47-7C7222.36,7192.63,7220.88,7195.1,7220.88,7199.75Z" transform="translate(-7147.5 -7147.26)"/><polygon class="cls-2" points="2 27.24 2 77.24 52 102.24 102 77.24 102 27.24 52 2.24 2 27.24"/></svg>