<svg id="Ebene_1" data-name="Ebene 1" xmlns="http://www.w3.org/2000/svg" viewBox="0 0 104.65 104.52"><defs><style>.cls-1{fill:none;stroke:#fff;stroke-miterlimit:10;stroke-width:4px;}.cls-2{fill:#fff;}</style></defs><polygon class="cls-1" points="52.32 2.52 2.32 40.71 21.42 102.52 83.22 102.52 102.32 40.71 52.32 2.52"/><path class="cls-2" d="M7180,7208.5l-4.56-18h2.45l2.14,9.11c.53,2.24,1,4.48,1.33,6.22h.06c.29-1.79.85-3.93,1.47-6.25l2.4-9.08h2.43l2.19,9.13c.51,2.14,1,4.28,1.25,6.17h.06c.37-2,.88-4,1.44-6.22l2.38-9.08h2.37l-5.1,18h-2.43l-2.27-9.37a54.22,54.22,0,0,1-1.17-5.88h-.06a58.28,58.28,0,0,1-1.38,5.88l-2.57,9.37Z" transform="translate(-7147.18 -7146.98)"/><path class="cls-2" d="M7203.91,7193.33h-.06l-3,1.63-.45-1.79,3.79-2h2v17.36h-2.27Z" transform="translate(-7147.18 -7146.98)"/><path class="cls-2" d="M7212.5,7208.5v-1.44l1.84-1.79c4.44-4.22,6.44-6.46,6.47-9.08a3.1,3.1,0,0,0-3.45-3.39,5.89,5.89,0,0,0-3.68,1.47l-.75-1.66a7.63,7.63,0,0,1,4.91-1.76c3.74,0,5.32,2.56,5.32,5,0,3.21-2.33,5.8-6,9.32l-1.39,1.29v.05h7.79v1.95Z" transform="translate(-7147.18 -7146.98)"/></svg>