<svg id="Ebene_1" data-name="Ebene 1" xmlns="http://www.w3.org/2000/svg" viewBox="0 0 104 104.47"><defs><style>.cls-1{fill:#fff;}.cls-2{fill:none;stroke:#fff;stroke-miterlimit:10;stroke-width:4px;}</style></defs><path class="cls-1" d="M7179.86,7208.21l-4.49-17.71h2.42l2.1,9c.53,2.21,1,4.42,1.31,6.12h.06c.28-1.76.84-3.86,1.44-6.15l2.37-8.93h2.39l2.15,9c.5,2.1,1,4.2,1.24,6.07h0c.37-2,.87-3.92,1.42-6.13l2.34-8.93H7197l-5,17.71h-2.39l-2.24-9.22a52.38,52.38,0,0,1-1.15-5.78h-.06a55.8,55.8,0,0,1-1.36,5.78l-2.53,9.22Z" transform="translate(-7147.5 -7147.26)"/><path class="cls-1" d="M7198.38,7208.21v-1.42l1.82-1.76c4.36-4.15,6.33-6.36,6.36-8.93a3,3,0,0,0-3.39-3.34,5.82,5.82,0,0,0-3.63,1.45l-.74-1.63a7.52,7.52,0,0,1,4.84-1.74c3.68,0,5.23,2.52,5.23,5,0,3.15-2.29,5.7-5.89,9.17l-1.36,1.26v.05h7.67v1.92Z" transform="translate(-7147.5 -7147.26)"/><path class="cls-1" d="M7223.21,7199.49c0,5.8-2.15,9-5.94,9-3.33,0-5.59-3.13-5.64-8.78s2.46-8.88,5.93-8.88S7223.21,7194.05,7223.21,7199.49Zm-9.27.26c0,4.44,1.36,7,3.47,7,2.36,0,3.49-2.76,3.49-7.12,0-4.2-1.08-7-3.47-7C7215.41,7192.63,7213.94,7195.1,7213.94,7199.75Z" transform="translate(-7147.5 -7147.26)"/><polygon class="cls-2" points="2 27.24 2 77.24 52 102.24 102 77.24 102 27.24 52 2.24 2 27.24"/></svg>