<svg id="Ebene_1" data-name="Ebene 1" xmlns="http://www.w3.org/2000/svg" viewBox="0 0 106.47 106.47"><defs><style>.cls-1{fill:#fff;}.cls-2{fill:none;stroke:#fff;stroke-miterlimit:10;stroke-width:4px;}</style></defs><path class="cls-1" d="M7187.19,7208.21l-4.49-17.71h2.42l2.1,9c.52,2.21,1,4.42,1.31,6.12h.05c.29-1.76.84-3.86,1.45-6.15l2.36-8.93h2.4l2.15,9c.5,2.1,1,4.2,1.24,6.07h0c.37-2,.86-3.92,1.42-6.13l2.34-8.93h2.33l-5,17.71h-2.4l-2.23-9.22a55.09,55.09,0,0,1-1.16-5.78h-.05a53.61,53.61,0,0,1-1.37,5.78l-2.52,9.22Z" transform="translate(-7146.26 -7145.03)"/><path class="cls-1" d="M7206.26,7205.56a7.75,7.75,0,0,0,3.79,1.07c3,0,3.89-1.89,3.86-3.31,0-2.39-2.18-3.41-4.41-3.41h-1.29v-1.74h1.29c1.68,0,3.81-.86,3.81-2.89,0-1.36-.87-2.57-3-2.57a6.19,6.19,0,0,0-3.41,1.13l-.61-1.68a8.09,8.09,0,0,1,4.47-1.32c3.36,0,4.89,2,4.89,4.07a4.26,4.26,0,0,1-3.16,4v.05a4.45,4.45,0,0,1,3.81,4.39c0,2.73-2.13,5.12-6.23,5.12a8.62,8.62,0,0,1-4.44-1.16Z" transform="translate(-7146.26 -7145.03)"/><polygon class="cls-2" points="53.24 4.47 3.24 104.47 103.24 104.47 53.24 4.47"/></svg>