<svg id="Ebene_1" data-name="Ebene 1" xmlns="http://www.w3.org/2000/svg" viewBox="0 0 104 104"><defs><style>.cls-1{fill:#fff;}.cls-2{fill:none;stroke:#fff;stroke-miterlimit:10;stroke-width:4px;}</style></defs><path class="cls-1" d="M7186.77,7208.21l-4.49-17.71h2.41l2.11,9c.52,2.21,1,4.42,1.31,6.12h.05c.29-1.76.84-3.86,1.45-6.15l2.36-8.93h2.39l2.16,9c.5,2.1,1,4.2,1.23,6.07h.06c.37-2,.86-3.92,1.42-6.13l2.33-8.93h2.34l-5,17.71h-2.39l-2.23-9.22a55.09,55.09,0,0,1-1.16-5.78h-.05a53.61,53.61,0,0,1-1.37,5.78l-2.52,9.22Z" transform="translate(-7147.5 -7147.5)"/><path class="cls-1" d="M7215,7192.76a8.35,8.35,0,0,0-1.73.1,6.94,6.94,0,0,0-5.94,6.08h.08a5.07,5.07,0,0,1,4.12-2c3,0,5.15,2.19,5.15,5.52,0,3.13-2.13,6-5.67,6s-6.05-2.84-6.05-7.28a10.75,10.75,0,0,1,2.89-7.7,9.3,9.3,0,0,1,5.47-2.52,10.43,10.43,0,0,1,1.68-.13Zm-.66,9.85c0-2.44-1.39-3.91-3.52-3.91a3.81,3.81,0,0,0-3.31,2.1,2,2,0,0,0-.26,1c.05,2.81,1.34,4.88,3.76,4.88C7213,7206.71,7214.38,7205.06,7214.38,7202.61Z" transform="translate(-7147.5 -7147.5)"/><rect class="cls-2" x="2" y="2" width="100" height="100"/></svg>